Genre: Drama
Language:English
 
http://www.imdb.com/title/tt1723811/

Source:P76/INSPIRAL Thanks!

Format : AVI
Format/Info : Audio Video Interleave
File size : 668 MiB
Duration : 1h 35mn
Overall bit rate : 982 Kbps

Video
ID : 0
Format : MPEG-4 Visual
Format profile : Advanced Simple@L5
Format settings, BVOP : 1
Format settings, QPel : No
Format settings, GMC : No warppoints
Format settings, Matrix : Default (H.263)
Codec ID : XVID
Codec ID/Hint : XviD
Duration : 1h 35mn
Bit rate : 812 Kbps
Width : 640 pixels
Height : 256 pixels
Display aspect ratio : 2.500
Frame rate : 25.000 fps
Color space : YUV
Chroma subsampling : 4:2:0
Bit depth : 8 bits
Scan type : Progressive
Compression mode : Lossy
Bits/(Pixel*Frame) : 0.198
Stream size : 553 MiB (83%)
Writing library : XviD 1.2.1 (UTC 2008-12-04)

Audio
ID : 1
Format : AC-3
Format/Info : Audio Coding 3
Mode extension : CM (complete main)
Codec ID : 2000
Duration : 1h 35mn
Bit rate mode : Constant
Bit rate : 160 Kbps
Channel(s) : 2 channels
Channel positions : Front: L R
Sampling rate : 48.0 KHz
Bit depth : 16 bits
Compression mode : Lossy
Stream size : 109 MiB (16%)
Alignment : Aligned on interleaves
Interleave, duration : 40 ms (1.00 video frame)
Interleave, preload duration : 512 ms


Plot:
In New York City, Brandon's carefully cultivated private life -- which allows him to indulge his sexual addiction -- is disrupted when his sister Sissy arrives unannounced for an indefinite stay.
 
http://img850.imageshack.us/img850/2605/vlcsnap2012012516h04m12.png 
http://img850.imageshack.us/img850/8315/vlcsnap2012012515h59m05.png 
http://img46.imageshack.us/img46/1589/vlcsnap2012012515h59m51.png 
http://img851.imageshack.us/img851/8540/vlcsnap2012012516h00m00.png